<svg width="12" height="14" viewBox="0 0 12 14" fill="none" xmlns="http://www.w3.org/2000/svg">
<path d="M5.46875 7.03125C5.75 7.3125 6.21875 7.3125 6.53125 7.03125L10.7812 2.78125C11.0625 2.46875 11.0625 2 10.7812 1.71875L10.0625 1C9.75 0.71875 9.28125 0.71875 9 1L5.96875 4.03125L2.96875 1C2.6875 0.71875 2.21875 0.71875 1.90625 1L1.21875 1.71875C0.90625 2 0.90625 2.46875 1.21875 2.78125L5.46875 7.03125ZM6.53125 13.0312L10.7812 8.78125C11.0625 8.46875 11.0625 8 10.7812 7.71875L10.0625 7C9.78125 6.71875 9.28125 6.71875 9 7L6 10.0312L2.96875 7C2.6875 6.71875 2.21875 6.71875 1.90625 7L1.21875 7.71875C0.90625 8 0.90625 8.46875 1.21875 8.78125L5.46875 13.0312C5.75 13.3125 6.21875 13.3125 6.53125 13.0312Z" fill="#473E9E"/>
</svg>
