<svg width="17" height="21" viewBox="0 0 17 21" fill="none" xmlns="http://www.w3.org/2000/svg">
<path d="M15.625 8.91675C15.625 14.4584 8.5 19.2084 8.5 19.2084C8.5 19.2084 1.375 14.4584 1.375 8.91675C1.375 7.02708 2.12567 5.21481 3.46186 3.87861C4.79806 2.54242 6.61033 1.79175 8.5 1.79175C10.3897 1.79175 12.2019 2.54242 13.5381 3.87861C14.8743 5.21481 15.625 7.02708 15.625 8.91675Z" stroke="#473E9E" stroke-width="2" stroke-linecap="round" stroke-linejoin="round"/>
<path d="M8.5 11.2917C9.81168 11.2917 10.875 10.2284 10.875 8.91675C10.875 7.60507 9.81168 6.54175 8.5 6.54175C7.18832 6.54175 6.125 7.60507 6.125 8.91675C6.125 10.2284 7.18832 11.2917 8.5 11.2917Z" stroke="#473E9E" stroke-width="2" stroke-linecap="round" stroke-linejoin="round"/>
</svg>
